<svg xmlns="http://www.w3.org/2000/svg" width="35.158" height="35.158" viewBox="0 0 35.158 35.158"><g transform="translate(20.547)"><path d="M305.422,6a3.071,3.071,0,0,0-.905-2.185L301.6.905A3.159,3.159,0,0,0,299.4,0h-.177V6.18h6.2V6Z" transform="translate(-299.222)" fill="#021389"/></g><path d="M18.811,21.255a4.134,4.134,0,0,1,.99-1.607L26.774,12.7V8.24H19.537a1,1,0,0,1-1-1.03V0H3.09A3.093,3.093,0,0,0,0,3.09V32.068a3.093,3.093,0,0,0,3.09,3.09H23.657a3.117,3.117,0,0,0,3.118-3.09V24.38l-1.132,1.1a4.1,4.1,0,0,1-1.6.988l-3.275,1.093-.5.027a2.575,2.575,0,0,1-2.44-3.393ZM5.15,18.54H15.417a1.03,1.03,0,1,1,0,2.06H5.15a1.03,1.03,0,1,1,0-2.06ZM4.12,15.45a1.029,1.029,0,0,1,1.03-1.03H15.417a1.03,1.03,0,0,1,0,2.06H5.15A1.029,1.029,0,0,1,4.12,15.45Zm0,8.24a1.029,1.029,0,0,1,1.03-1.03H15.417a1.03,1.03,0,1,1,0,2.06H5.15A1.029,1.029,0,0,1,4.12,23.69Zm15.417,5.15a1.03,1.03,0,0,1,0,2.06h-6.18a1.03,1.03,0,0,1,0-2.06ZM5.15,12.36a1.03,1.03,0,1,1,0-2.06H19.537a1.03,1.03,0,1,1,0,2.06Z" fill="#021389"/><g transform="translate(19.753 22.166)"><path d="M288.586,322.808l-.9,2.688a.515.515,0,0,0,.652.651l2.687-.9Z" transform="translate(-287.663 -322.808)" fill="#021389"/></g><g transform="translate(21.893 13.686)"><path d="M325.6,199.307l-6.784,6.784,2.926,2.926,6.783-6.784Z" transform="translate(-318.82 -199.307)" fill="#021389"/></g><g transform="translate(30.133 10.159)"><path d="M443.239,148.521a2.151,2.151,0,0,0-2.923,0l-1.5,1.5,2.925,2.925,1.5-1.5A2.073,2.073,0,0,0,443.239,148.521Z" transform="translate(-438.819 -147.949)" fill="#021389"/></g><g transform="translate(34.554 13.637)"><path d="M503.215,198.814h0l.006-.006Z" transform="translate(-503.215 -198.794)" fill="#021389"/><path d="M503.3,198.684l.009-.009Z" transform="translate(-503.297 -198.67)" fill="#021389"/><path d="M503.436,198.607Z" transform="translate(-503.421 -198.601)" fill="#021389"/></g></svg>