<svg xmlns="http://www.w3.org/2000/svg" width="36" height="36" viewBox="0 0 36 36"><path d="M2.625,18.75h11.25A2.628,2.628,0,0,0,16.5,16.125v-6A2.628,2.628,0,0,0,13.875,7.5H2.625A2.628,2.628,0,0,0,0,10.125v6A2.628,2.628,0,0,0,2.625,18.75Z" transform="translate(0 3.75)" fill="#021389"/><path d="M2.625,27.75h11.25A2.628,2.628,0,0,0,16.5,25.125v-6A2.628,2.628,0,0,0,13.875,16.5H2.625A2.628,2.628,0,0,0,0,19.125v6A2.628,2.628,0,0,0,2.625,27.75Z" transform="translate(0 8.25)" fill="#021389"/><path d="M33.375,0H2.625A2.628,2.628,0,0,0,0,2.625v3.75A2.628,2.628,0,0,0,2.625,9h30.75A2.628,2.628,0,0,0,36,6.375V2.625A2.628,2.628,0,0,0,33.375,0Z" fill="#021389"/><path d="M28.375,7.5H14.125a1.125,1.125,0,0,0,0,2.25h14.25a1.125,1.125,0,0,0,0-2.25Z" transform="translate(6.5 3.75)" fill="#021389"/><path d="M28.375,10.5H14.125a1.125,1.125,0,0,0,0,2.25h14.25a1.125,1.125,0,0,0,0-2.25Z" transform="translate(6.5 5.25)" fill="#021389"/><path d="M28.375,13.5H14.125a1.125,1.125,0,0,0,0,2.25h14.25a1.125,1.125,0,0,0,0-2.25Z" transform="translate(6.5 6.75)" fill="#021389"/><path d="M28.375,16.5H14.125a1.125,1.125,0,0,0,0,2.25h14.25a1.125,1.125,0,0,0,0-2.25Z" transform="translate(6.5 8.25)" fill="#021389"/><path d="M28.375,19.5H14.125a1.125,1.125,0,0,0,0,2.25h14.25a1.125,1.125,0,0,0,0-2.25Z" transform="translate(6.5 9.75)" fill="#021389"/><path d="M28.375,22.5H14.125a1.125,1.125,0,0,0,0,2.25h14.25a1.125,1.125,0,0,0,0-2.25Z" transform="translate(6.5 11.25)" fill="#021389"/></svg>