<svg xmlns="http://www.w3.org/2000/svg" width="58" height="58" viewBox="0 0 58 58"><g transform="translate(-3 -3)"><path d="M11,40.09V39a3,3,0,0,1,3-3H31v4.09a5.6,5.6,0,0,1,2,0V36H50a3,3,0,0,1,3,3v1.09a5.6,5.6,0,0,1,2,0V39a5.006,5.006,0,0,0-5-5H33V30.621H31V34H14a5.006,5.006,0,0,0-5,5v1.09a5.6,5.6,0,0,1,2,0Z" fill="#021389"/><path d="M24.121,23a1.117,1.117,0,0,0,.793-.328l.758-.758a1.121,1.121,0,0,0-1.586-1.586l-.758.758A1.121,1.121,0,0,0,24.121,23Z" fill="#021389"/><path d="M27.121,26a1.117,1.117,0,0,0,.793-.328l.758-.758a1.121,1.121,0,0,0-1.586-1.586l-.758.758A1.121,1.121,0,0,0,27.121,26Z" fill="#021389"/><path d="M27,11.586a.415.415,0,0,0,.414.414h3.757a1,1,0,0,0,.708-.293L33.586,10h1.585a5.791,5.791,0,0,0,4.122-1.707l1.414,1.414a7.772,7.772,0,0,1-.856.73l4.6,4.6A7.481,7.481,0,0,0,33.222,5.192l-6.1,6.1a.417.417,0,0,0-.121.293Z" fill="#021389"/><path d="M21.879,17a1.117,1.117,0,0,0-.793.328l-.758.758a1.121,1.121,0,0,0,1.586,1.586l.758-.758A1.121,1.121,0,0,0,21.879,17Z" fill="#021389"/><path d="M30.121,29a1.117,1.117,0,0,0,.793-.328l.758-.758a1.121,1.121,0,0,0-1.586-1.586l-.758.758A1.121,1.121,0,0,0,30.121,29Z" fill="#021389"/><path d="M21.879,15a3.118,3.118,0,0,1,3.11,3.011,3.113,3.113,0,0,1,3,3,3.113,3.113,0,0,1,3,3,3.111,3.111,0,0,1,2.763,4.327l.334.334a1.121,1.121,0,0,0,1.586-1.586l-4.379-4.379,1.414-1.414,4.379,4.379a1.121,1.121,0,0,0,1.586-1.586l-4.379-4.379,1.414-1.414,4.379,4.379a1.121,1.121,0,0,0,1.586-1.586l-4.379-4.379,1.414-1.414,4.379,4.379a1.121,1.121,0,0,0,1.586-1.586L38.04,11.454A7.818,7.818,0,0,1,35.171,12h-.757l-1.121,1.121A2.978,2.978,0,0,1,31.171,14H27.414a2.414,2.414,0,0,1-1.707-4.121l4.87-4.87a7.477,7.477,0,0,0-10.536,10.6A3.085,3.085,0,0,1,21.879,15Z" fill="#021389"/><path d="M32,52a7.008,7.008,0,0,0-7,7v2h2V57h2v4h6V57h2v4h2V59A7.008,7.008,0,0,0,32,52Z" fill="#021389"/><circle cx="4" cy="4" r="4" transform="translate(28 42)" fill="#021389"/><path d="M54,52a7.008,7.008,0,0,0-7,7v2h2V57h2v4h6V57h2v4h2V59A7.008,7.008,0,0,0,54,52Z" fill="#021389"/><circle cx="4" cy="4" r="4" transform="translate(50 42)" fill="#021389"/><circle cx="4" cy="4" r="4" transform="translate(6 42)" fill="#021389"/><path d="M10,52a7.008,7.008,0,0,0-7,7v2H5V57H7v4h6V57h2v4h2V59A7.008,7.008,0,0,0,10,52Z" fill="#021389"/><path d="M38,38h2v2H38Z" fill="#021389"/><path d="M42,38h2v2H42Z" fill="#021389"/><path d="M46,38h2v2H46Z" fill="#021389"/><path d="M16,38h2v2H16Z" fill="#021389"/><path d="M20,38h2v2H20Z" fill="#021389"/><path d="M24,38h2v2H24Z" fill="#021389"/></g></svg>