<svg xmlns="http://www.w3.org/2000/svg" width="41.579" height="43.333" viewBox="0 0 41.579 43.333"><g transform="translate(-10.359 0.002)"><g transform="translate(10.359 -0.002)"><g transform="translate(0 0)"><path d="M49.933,22.226a1.27,1.27,0,0,1,0-1.122L51.549,17.8a3.762,3.762,0,0,0-1.623-5l-3.251-1.725a1.27,1.27,0,0,1-.66-.908L45.38,6.544a3.762,3.762,0,0,0-4.249-3.087l-3.644.515a1.27,1.27,0,0,1-1.067-.347L33.775,1.067a3.761,3.761,0,0,0-5.252,0L25.877,3.626a1.27,1.27,0,0,1-1.067.347l-3.644-.515a3.761,3.761,0,0,0-4.249,3.087l-.636,3.625a1.27,1.27,0,0,1-.66.908L12.371,12.8a3.762,3.762,0,0,0-1.623,5L12.364,21.1a1.27,1.27,0,0,1,0,1.122l-1.616,3.306a3.762,3.762,0,0,0,1.623,5l3.251,1.725a1.27,1.27,0,0,1,.66.908l.636,3.625a3.759,3.759,0,0,0,3.708,3.125,3.865,3.865,0,0,0,.541-.038l3.644-.515a1.27,1.27,0,0,1,1.067.347l2.645,2.559a3.762,3.762,0,0,0,5.252,0L36.42,39.7a1.271,1.271,0,0,1,1.067-.347l3.644.515a3.761,3.761,0,0,0,4.249-3.087l.636-3.625a1.27,1.27,0,0,1,.66-.908l3.251-1.725a3.762,3.762,0,0,0,1.623-5ZM26.15,10.418A4.582,4.582,0,1,1,21.568,15,4.587,4.587,0,0,1,26.15,10.418ZM23.785,30.795a1.25,1.25,0,0,1-1.767-1.767L38.512,12.534A1.25,1.25,0,0,1,40.279,14.3Zm12.362,2.116a4.582,4.582,0,1,1,4.582-4.582A4.587,4.587,0,0,1,36.147,32.911Z" transform="translate(-10.359 0.002)" fill="#021389"/></g></g><g transform="translate(34.064 26.246)"><path d="M292.535,310.141a2.083,2.083,0,1,0,2.083,2.083A2.085,2.085,0,0,0,292.535,310.141Z" transform="translate(-290.452 -310.141)" fill="#021389"/></g><g transform="translate(24.067 12.917)"><path d="M174.416,152.646a2.083,2.083,0,1,0,2.083,2.083A2.085,2.085,0,0,0,174.416,152.646Z" transform="translate(-172.333 -152.646)" fill="#021389"/></g></g></svg>