<?xml version="1.0" encoding="utf-8"?>
<!-- Generator: Adobe Illustrator 25.2.1, SVG Export Plug-In . SVG Version: 6.00 Build 0)  -->
<svg version="1.1" id="Layer_1" xmlns="http://www.w3.org/2000/svg" xmlns:xlink="http://www.w3.org/1999/xlink" x="0px" y="0px"
	 viewBox="0 0 1280 1024" style="enable-background:new 0 0 1280 1024;" xml:space="preserve">
<style type="text/css">
	.st0{fill-rule:evenodd;clip-rule:evenodd;fill:#3C479C;}
</style>
<g>
	<g>
		<path class="st0" d="M312.62,534.06h96.49l7.63-41.1H262.45l-20.87,112.48h154.28l9.95-53.73h-96.91L312.62,534.06z
			 M942.48,427.22h-109.8l-8.72,48.66H992.1C992.1,475.87,996.49,427.22,942.48,427.22 M800.83,605.44h55.66l11.03-58.54h54.29
			c68.49,0,69.04-53.94,69.04-53.94H820.95L800.83,605.44z M751.7,427.22H641.82l-8.63,48.66h168.06
			C801.25,475.87,805.63,427.22,751.7,427.22 M609.99,605.44h55.72l11.06-58.54h54.27c68.49,0,69.04-53.94,69.04-53.94H630.08
			L609.99,605.44z M620.96,427.22H497.43c-52.23,0-58.62,48.66-58.62,48.66H611.9L620.96,427.22z M466.01,534.06h80.08l-3.71,17.64
			H424.82l-9.96,53.73h135.41c39.67,0,42.89-28.21,42.89-28.21l9.95-53.66c0,0,6.32-30.61-26.9-30.61H435.73
			C435.73,492.96,420.3,534.06,466.01,534.06 M428.88,427.22h-154.2l-9.06,48.66h154.27L428.88,427.22z M1016.26,435.17h3.63
			c1.78,0,3.03-0.27,3.65-0.82c0.68-0.49,0.95-1.24,0.95-2.06c0-0.55-0.12-1.1-0.4-1.51c-1.86-1.23-2.89-1.3-4.39-1.3h-3.43V435.17z
			 M1013.16,445.82v-18.87h6.53c2.18,0,3.85,0.13,4.79,0.47c1.04,0.34,1.79,0.96,2.4,1.85c0.56,0.82,0.83,1.78,0.83,2.74
			c0,1.38-0.48,2.61-1.44,3.57c-0.95,1.1-2.25,1.65-3.91,1.79c0.61,0.27,1.18,0.61,1.57,0.96c0.83,0.75,1.72,1.99,2.82,3.77
			l2.34,3.72h-3.77l-1.66-3.04c-1.31-2.33-2.42-3.76-3.23-4.32c-0.55-0.48-1.37-0.68-2.4-0.68h-1.78v8.04H1013.16z M1020.92,421.44
			c-2.47,0-4.88,0.62-7.21,1.93c-2.32,1.23-4.18,3.02-5.47,5.42c-1.31,2.34-1.99,4.81-1.99,7.34c0,2.47,0.61,4.94,1.92,7.21
			c1.29,2.34,3.14,4.13,5.49,5.43c2.26,1.3,4.65,1.91,7.27,1.91c2.48,0,4.96-0.61,7.28-1.91c2.27-1.3,4.11-3.09,5.42-5.43
			c1.23-2.27,1.92-4.74,1.92-7.21c0-2.53-0.7-5-2-7.34c-1.29-2.4-3.14-4.19-5.48-5.42C1025.73,422.06,1023.32,421.44,1020.92,421.44
			 M1020.92,418.56c2.95,0,5.77,0.76,8.59,2.27c2.81,1.51,4.99,3.64,6.59,6.46c1.51,2.81,2.32,5.76,2.32,8.85
			c0,3.02-0.75,5.9-2.32,8.65c-1.51,2.82-3.71,5.02-6.45,6.53c-2.81,1.57-5.7,2.32-8.72,2.32c-3.09,0-5.97-0.75-8.78-2.32
			c-2.75-1.51-4.94-3.71-6.45-6.53c-1.59-2.75-2.34-5.63-2.34-8.65c0-3.08,0.75-6.04,2.34-8.85c1.57-2.82,3.77-4.95,6.57-6.46
			C1015.08,419.32,1017.97,418.56,1020.92,418.56"/>
	</g>
</g>
</svg>
