<svg xmlns="http://www.w3.org/2000/svg" width="48.65" height="37.608" viewBox="0 0 48.65 37.608"><g transform="translate(0 -57.979)"><g transform="translate(5.732 68.022)"><path d="M68.082,218.389H60.195V200.754a.8.8,0,0,1,.795-.795h6.3a.8.8,0,0,1,.795.795Z" transform="translate(-60.195 -196.483)" fill="#021389"/><path d="M221.926,185.359h-7.887V164.248a.8.8,0,0,1,.795-.795h6.3a.8.8,0,0,1,.795.795Z" transform="translate(-199.389 -163.453)" fill="#021389"/><path d="M375.77,230.427h-7.887V214.059a.8.8,0,0,1,.795-.795h6.3a.8.8,0,0,1,.795.795Z" transform="translate(-338.583 -208.521)" fill="#021389"/></g><g transform="translate(0 92.73)"><path d="M47.222,425.779H1.428a1.428,1.428,0,0,1,0-2.857H47.222a1.428,1.428,0,0,1,0,2.857Z" transform="translate(0 -422.922)" fill="#021389"/></g><path d="M58.782,63.414a1.431,1.431,0,0,0-1.1-1.515L53.07,60.777a1.428,1.428,0,1,0-.675,2.776l1.305.317L50,66.153,35.97,58.166a1.428,1.428,0,0,0-1.314-.052L20.711,64.66,14.044,60.5a1.428,1.428,0,1,0-1.512,2.423l7.326,4.572a1.428,1.428,0,0,0,1.363.081L35.2,61.015l14.123,8.04a1.475,1.475,0,0,0,1.457-.026l4.486-2.768-.3,1.4a1.429,1.429,0,0,0,2.794.6l.99-4.637a1.661,1.661,0,0,0,.032-.206Z" transform="translate(-10.73)" fill="#021389"/></g></svg>