<svg xmlns="http://www.w3.org/2000/svg" width="41.634" height="41.634" viewBox="0 0 41.634 41.634"><path d="M40.655,16.077l-3.2-.7a17.415,17.415,0,0,0-1.03-2.483L38.2,10.142A1.244,1.244,0,0,0,38.03,8.59L33.045,3.6a1.244,1.244,0,0,0-1.552-.167L28.737,5.209a17.415,17.415,0,0,0-2.483-1.03l-.7-3.2A1.244,1.244,0,0,0,24.342,0h-7.05a1.244,1.244,0,0,0-1.216.98l-.7,3.2A17.415,17.415,0,0,0,12.9,5.209L10.142,3.438A1.244,1.244,0,0,0,8.59,3.6L3.6,8.59a1.244,1.244,0,0,0-.167,1.552L5.209,12.9a17.415,17.415,0,0,0-1.03,2.483l-3.2.7A1.244,1.244,0,0,0,0,17.292v7.05a1.244,1.244,0,0,0,.98,1.216l3.2.7a17.415,17.415,0,0,0,1.03,2.483L3.438,31.492A1.244,1.244,0,0,0,3.6,33.045L8.59,38.03a1.244,1.244,0,0,0,1.552.167L12.9,36.425a17.415,17.415,0,0,0,2.483,1.03l.7,3.2a1.244,1.244,0,0,0,1.216.98h7.05a1.244,1.244,0,0,0,1.216-.98l.7-3.2a17.415,17.415,0,0,0,2.483-1.03L31.492,38.2a1.244,1.244,0,0,0,1.552-.167l4.985-4.985a1.244,1.244,0,0,0,.167-1.552l-1.772-2.756a17.415,17.415,0,0,0,1.03-2.483l3.2-.7a1.244,1.244,0,0,0,.98-1.216v-7.05A1.244,1.244,0,0,0,40.655,16.077ZM28.282,20.817a7.464,7.464,0,1,1-7.464-7.464A7.473,7.473,0,0,1,28.282,20.817Zm0,0" fill="#021389"/></svg>