<svg xmlns="http://www.w3.org/2000/svg" width="50" height="50" viewBox="0 0 50 50"><path d="M22.917,14.562A1.567,1.567,0,0,0,21.354,13H13.542v6.25a2.083,2.083,0,0,1-4.167,0V13H1.563A1.566,1.566,0,0,0,0,14.562V34.354a1.566,1.566,0,0,0,1.563,1.563H21.354a1.567,1.567,0,0,0,1.563-1.562Z" transform="translate(0 14.083)" fill="#021389"/><path d="M35.917,14.562A1.567,1.567,0,0,0,34.354,13H26.542v6.25a2.083,2.083,0,0,1-4.167,0V13H14.562A1.566,1.566,0,0,0,13,14.562V34.354a1.566,1.566,0,0,0,1.563,1.563H34.354a1.567,1.567,0,0,0,1.563-1.562Z" transform="translate(14.083 14.083)" fill="#021389"/><path d="M29.417,1.563A1.568,1.568,0,0,0,27.854,0H20.042V6.25a2.083,2.083,0,1,1-4.167,0V0H8.063A1.567,1.567,0,0,0,6.5,1.563V21.354a1.566,1.566,0,0,0,1.563,1.563H27.854a1.567,1.567,0,0,0,1.563-1.562Z" transform="translate(7.042)" fill="#021389"/></svg>