<svg xmlns="http://www.w3.org/2000/svg" width="36.36" height="37.001" viewBox="0 0 36.36 37.001"><g transform="translate(-364 -553.25)"><path d="M2.725,24.629H14.4c1.5,0,2.725-1.793,2.725-4V11.5c0-2.2-1.222-4-2.725-4H2.725C1.222,7.5,0,9.293,0,11.5v9.135C0,22.836,1.222,24.629,2.725,24.629Z" transform="translate(364 545.75)" fill="#021389"/><path d="M2.725,24.629H14.4c1.5,0,2.725-1.793,2.725-4V11.5c0-2.2-1.222-4-2.725-4H2.725C1.222,7.5,0,9.293,0,11.5v9.135C0,22.836,1.222,24.629,2.725,24.629Z" transform="translate(383.231 545.75)" fill="#021389"/><path d="M2.725,33.629H14.4c1.5,0,2.725-1.793,2.725-4V20.5c0-2.2-1.222-4-2.725-4H2.725C1.222,16.5,0,18.293,0,20.5v9.135C0,31.836,1.222,33.629,2.725,33.629Z" transform="translate(364 556.622)" fill="#021389"/><path d="M2.725,33.629H14.4c1.5,0,2.725-1.793,2.725-4V20.5c0-2.2-1.222-4-2.725-4H2.725C1.222,16.5,0,18.293,0,20.5v9.135C0,31.836,1.222,33.629,2.725,33.629Z" transform="translate(383.231 556.622)" fill="#021389"/></g></svg>