<svg xmlns="http://www.w3.org/2000/svg" width="12.497" height="14.219" viewBox="0 0 12.497 14.219"><g transform="translate(2.499)"><path d="M124.749,0A3.749,3.749,0,1,0,128.5,3.749,3.753,3.753,0,0,0,124.749,0Z" transform="translate(-121)" fill="#021389"/></g><g transform="translate(0 8.332)"><g transform="translate(0)"><path d="M41.913,301.616A5.345,5.345,0,0,0,38.082,300H36.416a5.345,5.345,0,0,0-3.832,1.616A5.464,5.464,0,0,0,31,305.471a.417.417,0,0,0,.417.417H43.081a.417.417,0,0,0,.417-.417A5.464,5.464,0,0,0,41.913,301.616Z" transform="translate(-31 -300)" fill="#021389"/></g></g></svg>