<svg xmlns="http://www.w3.org/2000/svg" width="100" height="80" viewBox="0 0 100 80"><g transform="translate(-114 -70)"><rect width="100" height="80" transform="translate(114 70)" fill="#fff"/><g transform="translate(147 93)"><path d="M1.415,0A1.416,1.416,0,0,0,0,1.415V32.549a1.416,1.416,0,0,0,1.415,1.415H8.491a1.416,1.416,0,0,0,1.415-1.415V1.415A1.416,1.416,0,0,0,8.491,0Z" fill="#1891fc"/><path d="M25.491,0H18.415A1.416,1.416,0,0,0,17,1.415V32.549a1.416,1.416,0,0,0,1.415,1.415h7.076a1.416,1.416,0,0,0,1.415-1.415V1.415A1.416,1.416,0,0,0,25.491,0Z" transform="translate(7.058)" fill="#1891fc"/><path d="M8.5,1.415V32.549a1.416,1.416,0,0,0,1.415,1.415h7.076a1.416,1.416,0,0,0,1.415-1.415V1.415A1.416,1.416,0,0,0,16.991,0H9.915A1.416,1.416,0,0,0,8.5,1.415Z" transform="translate(3.529)" fill="#1891fc"/></g></g></svg>