<svg xmlns="http://www.w3.org/2000/svg" width="100" height="80" viewBox="0 0 100 80"><g transform="translate(-9 -680)"><rect width="100" height="80" transform="translate(9 680)" fill="#fff"/><circle cx="17.5" cy="17.5" r="17.5" transform="translate(42 703)" fill="#d9d9d9"/><g transform="translate(51.5 710.313)"><path d="M91.7,9.333A4.515,4.515,0,0,0,95,7.966a4.516,4.516,0,0,0,1.367-3.3A4.516,4.516,0,0,0,95,1.367a4.665,4.665,0,0,0-6.6,0,4.515,4.515,0,0,0-1.367,3.3,4.515,4.515,0,0,0,1.367,3.3A4.517,4.517,0,0,0,91.7,9.333ZM89.2,2.17a3.53,3.53,0,0,1,4.993,0,3.374,3.374,0,0,1,1.035,2.5,3.374,3.374,0,0,1-1.035,2.5,3.529,3.529,0,0,1-4.993,0,3.373,3.373,0,0,1-1.035-2.5A3.373,3.373,0,0,1,89.2,2.17Zm0,0" transform="translate(-83.738)" fill="#fff"/><path d="M16.125,252.856a11.526,11.526,0,0,0-.157-1.224,9.645,9.645,0,0,0-.3-1.231,6.08,6.08,0,0,0-.506-1.148,4.328,4.328,0,0,0-.763-.994,3.364,3.364,0,0,0-1.1-.689,3.788,3.788,0,0,0-1.4-.253,1.42,1.42,0,0,0-.758.322c-.227.148-.493.32-.79.509a4.527,4.527,0,0,1-1.022.45,3.97,3.97,0,0,1-2.5,0,4.513,4.513,0,0,1-1.022-.45c-.294-.188-.56-.359-.791-.51a1.419,1.419,0,0,0-.758-.322,3.783,3.783,0,0,0-1.4.254,3.361,3.361,0,0,0-1.1.689,4.328,4.328,0,0,0-.763.994A6.091,6.091,0,0,0,.5,250.4a9.667,9.667,0,0,0-.3,1.231,11.447,11.447,0,0,0-.157,1.225C.013,253.226,0,253.611,0,254a3.217,3.217,0,0,0,.955,2.434,3.439,3.439,0,0,0,2.462.9h9.329a3.44,3.44,0,0,0,2.462-.9A3.216,3.216,0,0,0,16.164,254C16.164,253.61,16.151,253.225,16.125,252.856Zm-1.7,2.756a2.316,2.316,0,0,1-1.679.585H3.418a2.316,2.316,0,0,1-1.679-.585,2.1,2.1,0,0,1-.6-1.611c0-.363.012-.721.036-1.066a10.326,10.326,0,0,1,.142-1.1,8.527,8.527,0,0,1,.265-1.085,4.959,4.959,0,0,1,.412-.933,3.208,3.208,0,0,1,.561-.735,2.231,2.231,0,0,1,.729-.453,2.613,2.613,0,0,1,.894-.173c.04.021.111.061.225.136.233.152.5.326.8.516a5.626,5.626,0,0,0,1.283.573,5.1,5.1,0,0,0,3.2,0,5.632,5.632,0,0,0,1.284-.574c.3-.195.566-.363.8-.515.115-.075.186-.115.225-.136a2.615,2.615,0,0,1,.894.173,2.235,2.235,0,0,1,.729.453,3.2,3.2,0,0,1,.561.735,4.943,4.943,0,0,1,.412.933,8.508,8.508,0,0,1,.265,1.085,10.413,10.413,0,0,1,.142,1.1h0c.024.343.036.7.036,1.065A2.1,2.1,0,0,1,14.426,255.612Zm0,0" transform="translate(0 -237.958)" fill="#fff"/></g></g></svg>