<svg xmlns="http://www.w3.org/2000/svg" width="100" height="80" viewBox="0 0 100 80"><g transform="translate(-9 -802)"><rect width="100" height="80" transform="translate(9 802)" fill="#fff"/><g transform="translate(0 -5)"><g transform="translate(-103 747)"><g transform="translate(139 80)"><g transform="translate(0 9.964)"><rect width="47" height="2" transform="translate(0 0.036)" fill="#ededed"/><rect width="47" height="2" transform="translate(0 4.036)" fill="#ededed"/><rect width="24" height="2" transform="translate(0 8.036)" fill="#ededed"/></g><rect width="46.215" height="4.405" transform="translate(0.106)" fill="#b9babe"/></g><g transform="translate(139 93)"><g transform="translate(0 9.964)"><rect width="47" height="2" transform="translate(0 0.036)" fill="#ededed"/><rect width="47" height="2" transform="translate(0 4.036)" fill="#ededed"/><rect width="24" height="2" transform="translate(0 8.036)" fill="#ededed"/></g></g></g><g transform="translate(67.954 849.322)"><g transform="translate(2.325 4.011)"><g transform="translate(0 0)"><path d="M82.612,15.549l-.862-2.51a6.279,6.279,0,0,0-5.534-9.028,6.272,6.272,0,1,0-.1,12.544h.01a6.292,6.292,0,0,0,2.746-.637l2.51.862a.977.977,0,0,0,.318.053.971.971,0,0,0,.914-1.286ZM76.72,12.46H73.482a.442.442,0,1,1,0-.884H76.72a.442.442,0,0,1,0,.884Zm2.027-1.818H73.482a.442.442,0,0,1,0-.884h5.266a.442.442,0,0,1,0,.884Zm0-1.818H73.482a.442.442,0,0,1,0-.884h5.266a.442.442,0,0,1,0,.884Z" transform="translate(-69.842 -4.011)" fill="#1891fc"/></g></g></g></g></g></svg>