<svg xmlns="http://www.w3.org/2000/svg" width="100" height="80" viewBox="0 0 100 80"><g transform="translate(-9 -436)"><rect width="100" height="80" transform="translate(9 436)" fill="#fff"/><g transform="translate(-9609.359 -3595.503)"><rect width="71" height="48" transform="translate(9633.359 4047.503)" fill="#f4f4f4"/><g transform="translate(9633.359 4059.503)" fill="#fff" stroke="#bfbfbf" stroke-width="0.5"><rect width="71" height="24" stroke="none"/><rect x="0.25" y="0.25" width="70.5" height="23.5" fill="none"/></g><rect width="26.589" height="4.836" transform="translate(9647.014 4051.022)" fill="#d5d5d5"/><rect width="26.589" height="4.836" transform="translate(9647.014 4087.264)" fill="#d5d5d5"/><g transform="translate(9638.542 4064.079)"><g transform="translate(0 0)"><rect width="61" height="2" transform="translate(-0.183 0.425)" fill="#ededed"/><rect width="61" height="2" transform="translate(-0.183 6.425)" fill="#ededed"/><rect width="31" height="2" transform="translate(-0.183 12.425)" fill="#ededed"/></g></g><path d="M.28,4.382a.276.276,0,0,1-.255-.2A.344.344,0,0,1,.1,3.832L1.765,2.195.1.557a.338.338,0,0,1-.1-.3A.3.3,0,0,1,.185.017.246.246,0,0,1,.456.083l1.9,1.875a.344.344,0,0,1,0,.474L.456,4.306a.25.25,0,0,1-.177.075Z" transform="translate(9643.545 4052.468) rotate(90)" fill="#727272"/><path d="M44.751,42.357a.276.276,0,0,1-.255-.2.344.344,0,0,1,.078-.345l1.662-1.637-1.662-1.637a.338.338,0,0,1-.1-.3.3.3,0,0,1,.181-.242.246.246,0,0,1,.272.066l1.9,1.875a.344.344,0,0,1,0,.474l-1.9,1.875a.25.25,0,0,1-.177.075Z" transform="translate(9596.41 4049.771)" fill="#727272"/></g></g></svg>