<svg xmlns="http://www.w3.org/2000/svg" width="100" height="80" viewBox="0 0 100 80"><g transform="translate(-114 -802)"><rect width="100" height="80" transform="translate(114 802)" fill="#fff"/><rect width="75" height="36" rx="2" transform="translate(127 824)" fill="#f4f4f4"/><rect width="18" height="18" rx="1" transform="translate(127 824)" fill="#1891fc"/><g transform="translate(136.317 829)"><path d="M634.933,220.522v6.371a.166.166,0,0,0,.166.166h2.366a.166.166,0,0,0,.166-.166v-6.475h1.716a.166.166,0,0,0,.165-.152l.165-1.951a.166.166,0,0,0-.166-.18h-1.88v-1.384a.588.588,0,0,1,.587-.588h1.322a.166.166,0,0,0,.166-.166v-1.951a.166.166,0,0,0-.166-.166h-2.234a2.374,2.374,0,0,0-2.374,2.374v1.881H633.75a.166.166,0,0,0-.166.166v1.951a.166.166,0,0,0,.166.166h1.183Z" transform="translate(-633.584 -213.881)" fill="#fff" fill-rule="evenodd"/></g><g transform="translate(-6613.896 -3824)"><g transform="translate(6767 4667)"><rect width="41" height="2" transform="translate(-0.104)" fill="#d9d9d9"/><rect width="41" height="2" transform="translate(-0.104 4)" fill="#d9d9d9"/><rect width="24" height="2" transform="translate(-0.104 8)" fill="#d9d9d9"/></g><rect width="40.396" height="4.32" transform="translate(6767 4657)" fill="#b9babe"/></g></g></svg>