<svg xmlns="http://www.w3.org/2000/svg" width="100" height="80" viewBox="0 0 100 80"><g transform="translate(-114 -1168)"><rect width="100" height="80" transform="translate(114 1168)" fill="#fff"/><g transform="translate(-6638.896 -3439)"><g transform="translate(6767 4656)"><rect width="22" height="2" transform="translate(-0.104)" fill="#ededed"/><rect width="22" height="2" transform="translate(-0.104 4)" fill="#ededed"/><rect width="13" height="2" transform="translate(-0.104 8)" fill="#ededed"/></g><rect width="22" height="4.32" transform="translate(6767 4629)" fill="#b9babe"/></g><g transform="translate(-6612.896 -3439)"><g transform="translate(6767 4656)"><rect width="22" height="2" transform="translate(-0.104)" fill="#ededed"/><rect width="22" height="2" transform="translate(-0.104 4)" fill="#ededed"/><rect width="13" height="2" transform="translate(-0.104 8)" fill="#ededed"/></g><rect width="22" height="4.32" transform="translate(6767 4629)" fill="#b9babe"/></g><g transform="translate(-6586.896 -3439)"><g transform="translate(6767 4656)"><rect width="22" height="2" transform="translate(-0.104)" fill="#ededed"/><rect width="22" height="2" transform="translate(-0.104 4)" fill="#ededed"/><rect width="13" height="2" transform="translate(-0.104 8)" fill="#ededed"/></g><rect width="22" height="4.32" transform="translate(6767 4629)" fill="#b9babe"/></g><g transform="translate(-153 979)"><rect width="21.875" height="15" transform="translate(281 220)" fill="#a4d6fe"/><circle cx="2" cy="2" r="2" transform="translate(283 222)" fill="#308ffc"/><path d="M7329.638,3911.144l10.384-8.229,3.13,3.592,8.36-8.363v13Z" transform="translate(-7048.637 -3676.144)" fill="#308ffc"/></g><g transform="translate(-127 979)"><rect width="21.875" height="15" transform="translate(281 220)" fill="#a4d6fe"/><circle cx="2" cy="2" r="2" transform="translate(283 222)" fill="#308ffc"/><path d="M7329.638,3911.144l10.384-8.229,3.13,3.592,8.36-8.363v13Z" transform="translate(-7048.637 -3676.144)" fill="#308ffc"/></g><g transform="translate(-101 979)"><rect width="21.875" height="15" transform="translate(281 220)" fill="#a4d6fe"/><circle cx="2" cy="2" r="2" transform="translate(283 222)" fill="#308ffc"/><path d="M7329.638,3911.144l10.384-8.229,3.13,3.592,8.36-8.363v13Z" transform="translate(-7048.637 -3676.144)" fill="#308ffc"/></g></g></svg>