<svg xmlns="http://www.w3.org/2000/svg" width="100" height="80" viewBox="0 0 100 80"><g transform="translate(-10 -1290)"><rect width="100" height="80" transform="translate(10 1290)" fill="#fff"/><g transform="translate(0.49 -1.6)"><g transform="translate(27 1305)"><g transform="translate(-0.49 19.667)"><rect width="19" height="3.584" fill="#ededed"/></g><g transform="translate(0 0)"><rect width="19" height="19" transform="translate(-0.49 -0.4)" fill="#a4d6fe"/><circle cx="1.5" cy="1.5" r="1.5" transform="translate(1.51 3.6)" fill="#308ffc"/><path d="M7329.639,3909.144l9.019-6.963,2.719,3.039,7.262-7.076v11Z" transform="translate(-7330.128 -3890.543)" fill="#308ffc"/></g></g></g><g transform="translate(0.49 28.4)"><g transform="translate(27 1305)"><g transform="translate(-0.49 19.667)"><rect width="19" height="3.584" fill="#ededed"/></g><g transform="translate(0 0)"><rect width="19" height="19" transform="translate(-0.49 -0.4)" fill="#a4d6fe"/><circle cx="1.5" cy="1.5" r="1.5" transform="translate(1.51 3.6)" fill="#308ffc"/><path d="M7329.639,3909.144l9.019-6.963,2.719,3.039,7.262-7.076v11Z" transform="translate(-7330.128 -3890.543)" fill="#308ffc"/></g></g></g><g transform="translate(23.49 -1.6)"><g transform="translate(27 1305)"><g transform="translate(-0.49 19.667)"><rect width="19" height="3.584" fill="#ededed"/></g><g transform="translate(0 0)"><rect width="19" height="19" transform="translate(-0.49 -0.4)" fill="#a4d6fe"/><circle cx="1.5" cy="1.5" r="1.5" transform="translate(1.51 3.6)" fill="#308ffc"/><path d="M7329.639,3909.144l9.019-6.963,2.719,3.039,7.262-7.076v11Z" transform="translate(-7330.128 -3890.543)" fill="#308ffc"/></g></g></g><g transform="translate(23.49 28.4)"><g transform="translate(27 1305)"><g transform="translate(-0.49 19.667)"><rect width="19" height="3.584" fill="#ededed"/></g><g transform="translate(0 0)"><rect width="19" height="19" transform="translate(-0.49 -0.4)" fill="#a4d6fe"/><circle cx="1.5" cy="1.5" r="1.5" transform="translate(1.51 3.6)" fill="#308ffc"/><path d="M7329.639,3909.144l9.019-6.963,2.719,3.039,7.262-7.076v11Z" transform="translate(-7330.128 -3890.543)" fill="#308ffc"/></g></g></g><g transform="translate(46.49 -1.6)"><g transform="translate(27 1305)"><g transform="translate(-0.49 19.667)"><rect width="19" height="3.584" fill="#ededed"/></g><g transform="translate(0 0)"><rect width="19" height="19" transform="translate(-0.49 -0.4)" fill="#a4d6fe"/><circle cx="1.5" cy="1.5" r="1.5" transform="translate(1.51 3.6)" fill="#308ffc"/><path d="M7329.639,3909.144l9.019-6.963,2.719,3.039,7.262-7.076v11Z" transform="translate(-7330.128 -3890.543)" fill="#308ffc"/></g></g></g><g transform="translate(46.49 28.4)"><g transform="translate(27 1305)"><g transform="translate(-0.49 19.667)"><rect width="19" height="3.584" fill="#ededed"/></g><g transform="translate(0 0)"><rect width="19" height="19" transform="translate(-0.49 -0.4)" fill="#a4d6fe"/><circle cx="1.5" cy="1.5" r="1.5" transform="translate(1.51 3.6)" fill="#308ffc"/><path d="M7329.639,3909.144l9.019-6.963,2.719,3.039,7.262-7.076v11Z" transform="translate(-7330.128 -3890.543)" fill="#308ffc"/></g></g></g></g></svg>