<svg xmlns="http://www.w3.org/2000/svg" width="100" height="80" viewBox="0 0 100 80"><g transform="translate(-9 -70)"><rect width="100" height="80" transform="translate(9 70)" fill="#fff"/><g transform="translate(42.036 93.036)"><path d="M32.515,0H1.414A1.414,1.414,0,0,0,0,1.414V7.068A1.414,1.414,0,0,0,1.414,8.482h31.1a1.414,1.414,0,0,0,1.414-1.414V1.414A1.414,1.414,0,0,0,32.515,0Z" fill="#1891fc"/><path d="M32.515,9H1.414A1.414,1.414,0,0,0,0,10.414v5.655a1.414,1.414,0,0,0,1.414,1.414h31.1a1.414,1.414,0,0,0,1.414-1.414V10.414A1.414,1.414,0,0,0,32.515,9Z" transform="translate(0 3.723)" fill="#1891fc"/><path d="M32.515,18H1.414A1.414,1.414,0,0,0,0,19.414v5.655a1.414,1.414,0,0,0,1.414,1.414h31.1a1.414,1.414,0,0,0,1.414-1.414V19.414A1.414,1.414,0,0,0,32.515,18Z" transform="translate(0 7.446)" fill="#1891fc"/></g></g></svg>