<svg xmlns="http://www.w3.org/2000/svg" width="100" height="80" viewBox="0 0 100 80"><g transform="translate(-114 -680)"><rect width="100" height="80" transform="translate(114 680)" fill="#fff"/><g transform="translate(-1 1)"><g transform="translate(165.396 696.241)"><g transform="translate(0 0)"><path d="M624.913,224.934a10.993,10.993,0,1,1,10.993-10.993A11.006,11.006,0,0,1,624.913,224.934Z" transform="translate(-613.92 -202.947)" fill="#1891fc"/></g><g transform="translate(7.92 4.404)"><path d="M634.933,220.522v6.371a.166.166,0,0,0,.166.166h2.366a.166.166,0,0,0,.166-.166v-6.475h1.716a.166.166,0,0,0,.165-.152l.165-1.951a.166.166,0,0,0-.166-.18h-1.88v-1.384a.588.588,0,0,1,.587-.588h1.322a.166.166,0,0,0,.166-.166v-1.951a.166.166,0,0,0-.166-.166h-2.234a2.374,2.374,0,0,0-2.374,2.374v1.881H633.75a.166.166,0,0,0-.166.166v1.951a.166.166,0,0,0,.166.166h1.183Z" transform="translate(-633.584 -213.881)" fill="#fff" fill-rule="evenodd"/></g></g><g transform="translate(165.773 720.734)"><g transform="translate(0 0)"><path d="M543.188,224.556a10.8,10.8,0,1,1,10.8-10.8A10.817,10.817,0,0,1,543.188,224.556Z" transform="translate(-532.384 -202.947)" fill="#1891fc"/></g><g transform="translate(4.468 5.618)"><g transform="translate(0)"><path d="M556.216,218.382a5.167,5.167,0,0,1-1.272.363c.2-.034.507-.405.628-.555a2.344,2.344,0,0,0,.424-.771c.011-.022.019-.05,0-.067a.071.071,0,0,0-.067.006,6.492,6.492,0,0,1-1.511.578.1.1,0,0,1-.1-.028,1.217,1.217,0,0,0-.132-.135,2.674,2.674,0,0,0-.732-.449,2.55,2.55,0,0,0-1.123-.181,2.683,2.683,0,0,0-1.065.3,2.749,2.749,0,0,0-.859.7,2.647,2.647,0,0,0-.513,1.028,2.783,2.783,0,0,0-.027,1.085c.008.061,0,.069-.052.061a8.07,8.07,0,0,1-5.192-2.643c-.061-.069-.094-.069-.143.006a2.632,2.632,0,0,0,.449,3.111c.1.1.206.193.319.281a2.638,2.638,0,0,1-1-.281c-.061-.038-.091-.016-.1.052a1.568,1.568,0,0,0,.016.3,2.663,2.663,0,0,0,1.641,2.122,1.54,1.54,0,0,0,.333.1,2.966,2.966,0,0,1-.983.031c-.072-.014-.1.022-.072.091a2.764,2.764,0,0,0,2.065,1.729c.094.016.187.016.281.038-.006.008-.011.008-.017.017a3.272,3.272,0,0,1-1.41.747,5.052,5.052,0,0,1-2.142.274c-.115-.017-.139-.016-.171,0s0,.047.033.077c.146.1.295.182.446.264a7.075,7.075,0,0,0,1.432.573,7.625,7.625,0,0,0,7.4-1.731,7.768,7.768,0,0,0,2.049-5.667c0-.082.1-.127.154-.169a4.99,4.99,0,0,0,1-1.048.3.3,0,0,0,.062-.2v-.011C556.263,218.349,556.268,218.359,556.216,218.382Z" transform="translate(-543.67 -217.139)" fill="#fff"/></g><g transform="translate(3.74 10.328)"><path d="M553.118,243.228Z" transform="translate(-553.118 -243.228)" fill="#fff" fill-rule="evenodd"/></g><g transform="translate(3.644 10.328)"><path d="M552.971,243.228c-.017,0-.208,0,0,0Z" transform="translate(-552.875 -243.228)" fill="#fff" fill-rule="evenodd"/></g><g transform="translate(4.164 10.33)"><path d="M554.189,243.242c0-.021.223,0,0,0C554.189,243.231,554.216,243.242,554.189,243.242Z" transform="translate(-554.189 -243.232)" fill="#fff" fill-rule="evenodd"/></g><g transform="translate(8.566 0.015)"><path d="M565.36,217.177a.045.045,0,0,1-.052,0Z" transform="translate(-565.308 -217.177)" fill="#fff" fill-rule="evenodd"/></g></g></g><g transform="translate(142.54 720.735)"><g transform="translate(0 0)"><g transform="translate(0 0)"><path d="M624.771,289.7a10.8,10.8,0,1,1,10.8-10.8A10.817,10.817,0,0,1,624.771,289.7Z" transform="translate(-613.966 -268.094)" fill="#1891fc"/></g><g transform="translate(5.659 8.32)"><path d="M639.491,292.382v4.034a.18.18,0,0,1-.181.18h-2.083a.18.18,0,0,1-.18-.18v-3.752c0-.987-.353-1.662-1.238-1.662a1.336,1.336,0,0,0-1.253.893,1.665,1.665,0,0,0-.081.6v3.924a.18.18,0,0,1-.18.18h-2.082a.18.18,0,0,1-.18-.18c0-1,.026-5.847,0-6.986a.18.18,0,0,1,.18-.183H634.3a.181.181,0,0,1,.18.181v.861c0,.008-.012.016-.016.024h.016v-.024a2.426,2.426,0,0,1,2.2-1.214c1.608,0,2.813,1.05,2.813,3.308ZM628.418,296.6H630.5a.18.18,0,0,0,.18-.18v-6.988a.181.181,0,0,0-.18-.181h-2.082a.181.181,0,0,0-.18.181v6.988A.18.18,0,0,0,628.418,296.6Z" transform="translate(-628.238 -289.074)" fill="#fff"/></g></g><g transform="translate(5.5 4.941)"><ellipse cx="1.308" cy="1.308" rx="1.308" ry="1.308" transform="translate(0)" fill="#fff"/></g></g><g transform="translate(141.695 696.241)"><g transform="translate(0)"><g transform="translate(0 0)"><path d="M624.96,290.081a10.993,10.993,0,1,1,10.993-10.994A11.006,11.006,0,0,1,624.96,290.081Z" transform="translate(-613.966 -268.094)" fill="#1891fc"/></g></g><g transform="translate(3.811 6.765)"><path d="M20,9H18.725v1.266H17.459v1.271h1.266V12.8H20V11.537h1.266V10.266H20Z" transform="translate(-7.309 -6.384)" fill="#fff"/><path d="M4.36,13.221A4.022,4.022,0,0,0,8.548,8.962a3.726,3.726,0,0,0-.071-.726H4.361v1.5H6.836a2.362,2.362,0,0,1-2.475,1.88,2.755,2.755,0,0,1,0-5.509A2.45,2.45,0,0,1,6.1,6.778L7.282,5.642A4.17,4.17,0,0,0,4.36,4.5a4.36,4.36,0,0,0,0,8.721Z" transform="translate(0 -4.5)" fill="#fff"/></g></g></g></g></svg>