<svg xmlns="http://www.w3.org/2000/svg" width="100" height="80" viewBox="0 0 100 80"><g transform="translate(-10 -1168)"><rect width="100" height="80" transform="translate(10 1168)" fill="#fff"/><g transform="translate(-104 732)"><g transform="translate(2)"><rect width="36" height="17" rx="1" transform="translate(122 455)" fill="#ededed"/><rect width="36" height="17" rx="1" transform="translate(122 480)" fill="#ededed"/><rect width="36" height="17" rx="1" transform="translate(166 455)" fill="#ededed"/><rect width="36" height="17" rx="1" transform="translate(166 480)" fill="#ededed"/><path d="M7245,4137.451v3.621" transform="translate(-7087 -3676)" fill="none" stroke="#308ffc" strokeWidth="0.5"/><path d="M7245,4137.451v3.621" transform="translate(-7079 -3676)" fill="none" stroke="#308ffc" strokeWidth="0.5"/><path d="M7245,4137.451v7.811" transform="translate(4303.45 -6781.739) rotate(90)" fill="none" stroke="#308ffc" strokeWidth="0.5"/><g transform="translate(0 26)"><path d="M7245,4137.451v3.621" transform="translate(-7087 -3676)" fill="none" stroke="#308ffc" strokeWidth="0.5"/><path d="M7245,4137.451v3.621" transform="translate(-7079 -3676)" fill="none" stroke="#308ffc" strokeWidth="0.5"/><path d="M7245,4137.451v7.811" transform="translate(4303.45 -6781.739) rotate(90)" fill="none" stroke="#308ffc" strokeWidth="0.5"/></g><g transform="translate(-279.261 638.261) rotate(-90)"><path d="M7245,4137.451v3.621" transform="translate(-7087 -3676)" fill="none" stroke="#308ffc" strokeWidth="0.5"/><path d="M7245,4137.451v3.621" transform="translate(-7079 -3676)" fill="none" stroke="#308ffc" strokeWidth="0.5"/><path d="M7245,4137.451v7.811" transform="translate(4303.45 -6781.739) rotate(90)" fill="none" stroke="#308ffc" strokeWidth="0.5"/></g><g transform="translate(-323.261 638.261) rotate(-90)"><path d="M7245,4137.451v3.621" transform="translate(-7087 -3676)" fill="none" stroke="#308ffc" strokeWidth="0.5"/><path d="M7245,4137.451v3.621" transform="translate(-7079 -3676)" fill="none" stroke="#308ffc" strokeWidth="0.5"/><path d="M7245,4137.451v7.811" transform="translate(4303.45 -6781.739) rotate(90)" fill="none" stroke="#308ffc" strokeWidth="0.5"/></g></g></g></g></svg>